<svg xmlns="http://www.w3.org/2000/svg" width="900" height="650" viewBox="0 0 900 650" fill="none" role="img" aria-label="После ремонта">
<defs><linearGradient id="bg" x1="0" y1="0" x2="900" y2="650" gradientUnits="userSpaceOnUse"><stop stop-color="#eef2f0"/><stop offset="1" stop-color="#dfe7e2"/></linearGradient></defs>
<rect width="900" height="650" fill="url(#bg)"/>
<line x1="0" y1="0" x2="0" y2="650" stroke="#cdd8d2" stroke-width="1" opacity="0.5"/>
<line x1="60" y1="0" x2="60" y2="650" stroke="#cdd8d2" stroke-width="1" opacity="0.5"/>
<line x1="120" y1="0" x2="120" y2="650" stroke="#cdd8d2" stroke-width="1" opacity="0.5"/>
<line x1="180" y1="0" x2="180" y2="650" stroke="#cdd8d2" stroke-width="1" opacity="0.5"/>
<line x1="240" y1="0" x2="240" y2="650" stroke="#cdd8d2" stroke-width="1" opacity="0.5"/>
<line x1="300" y1="0" x2="300" y2="650" stroke="#cdd8d2" stroke-width="1" opacity="0.5"/>
<line x1="360" y1="0" x2="360" y2="650" stroke="#cdd8d2" stroke-width="1" opacity="0.5"/>
<line x1="420" y1="0" x2="420" y2="650" stroke="#cdd8d2" stroke-width="1" opacity="0.5"/>
<line x1="480" y1="0" x2="480" y2="650" stroke="#cdd8d2" stroke-width="1" opacity="0.5"/>
<line x1="540" y1="0" x2="540" y2="650" stroke="#cdd8d2" stroke-width="1" opacity="0.5"/>
<line x1="600" y1="0" x2="600" y2="650" stroke="#cdd8d2" stroke-width="1" opacity="0.5"/>
<line x1="660" y1="0" x2="660" y2="650" stroke="#cdd8d2" stroke-width="1" opacity="0.5"/>
<line x1="720" y1="0" x2="720" y2="650" stroke="#cdd8d2" stroke-width="1" opacity="0.5"/>
<line x1="780" y1="0" x2="780" y2="650" stroke="#cdd8d2" stroke-width="1" opacity="0.5"/>
<line x1="840" y1="0" x2="840" y2="650" stroke="#cdd8d2" stroke-width="1" opacity="0.5"/>
<line x1="0" y1="0" x2="900" y2="0" stroke="#cdd8d2" stroke-width="1" opacity="0.5"/>
<line x1="0" y1="60" x2="900" y2="60" stroke="#cdd8d2" stroke-width="1" opacity="0.5"/>
<line x1="0" y1="120" x2="900" y2="120" stroke="#cdd8d2" stroke-width="1" opacity="0.5"/>
<line x1="0" y1="180" x2="900" y2="180" stroke="#cdd8d2" stroke-width="1" opacity="0.5"/>
<line x1="0" y1="240" x2="900" y2="240" stroke="#cdd8d2" stroke-width="1" opacity="0.5"/>
<line x1="0" y1="300" x2="900" y2="300" stroke="#cdd8d2" stroke-width="1" opacity="0.5"/>
<line x1="0" y1="360" x2="900" y2="360" stroke="#cdd8d2" stroke-width="1" opacity="0.5"/>
<line x1="0" y1="420" x2="900" y2="420" stroke="#cdd8d2" stroke-width="1" opacity="0.5"/>
<line x1="0" y1="480" x2="900" y2="480" stroke="#cdd8d2" stroke-width="1" opacity="0.5"/>
<line x1="0" y1="540" x2="900" y2="540" stroke="#cdd8d2" stroke-width="1" opacity="0.5"/>
<line x1="0" y1="600" x2="900" y2="600" stroke="#cdd8d2" stroke-width="1" opacity="0.5"/>
<rect x="0" y="0" width="120" height="8" fill="#00682b"/>
<rect x="0" y="0" width="8" height="120" fill="#00682b"/>
<rect x="780" y="642" width="120" height="8" fill="#00682b"/>
<rect x="892" y="530" width="8" height="120" fill="#00682b"/>
<circle cx="450" cy="295" r="70" stroke="#00682b" stroke-width="6" opacity="0.9"/><circle cx="450" cy="295" r="26" stroke="#00682b" stroke-width="6"/>
<line x1="520.0" y1="295.0" x2="542.0" y2="295.0" stroke="#00682b" stroke-width="6" stroke-linecap="round"/>
<line x1="499.5" y1="344.5" x2="515.1" y2="360.1" stroke="#00682b" stroke-width="6" stroke-linecap="round"/>
<line x1="450.0" y1="365.0" x2="450.0" y2="387.0" stroke="#00682b" stroke-width="6" stroke-linecap="round"/>
<line x1="400.5" y1="344.5" x2="384.9" y2="360.1" stroke="#00682b" stroke-width="6" stroke-linecap="round"/>
<line x1="380.0" y1="295.0" x2="358.0" y2="295.0" stroke="#00682b" stroke-width="6" stroke-linecap="round"/>
<line x1="400.5" y1="245.5" x2="384.9" y2="229.9" stroke="#00682b" stroke-width="6" stroke-linecap="round"/>
<line x1="450.0" y1="225.0" x2="450.0" y2="203.0" stroke="#00682b" stroke-width="6" stroke-linecap="round"/>
<line x1="499.5" y1="245.5" x2="515.1" y2="229.9" stroke="#00682b" stroke-width="6" stroke-linecap="round"/>
<text x="450" y="445" text-anchor="middle" font-family="Arial, sans-serif" font-size="38" font-weight="700" fill="#2b3a33">После ремонта</text>
<text x="450" y="485" text-anchor="middle" font-family="Arial, sans-serif" font-size="20" fill="#00682b">фото будет заменено</text>
<rect x="32" y="32" width="150" height="52" rx="8" fill="#00682b"/>
<text x="107" y="66" text-anchor="middle" font-family="Arial, sans-serif" font-size="26" font-weight="800" fill="#ffffff">ПОСЛЕ</text>
</svg>